<svg width="257" height="14" viewBox="0 0 257 14" fill="none" xmlns="http://www.w3.org/2000/svg">
<path d="M-3.9041e-05 0.216039H1.85396L5.52596 6.85804H5.59796L9.44996 0.216039H10.422L5.99396 7.88404V12.816H4.35596V8.04604L-3.9041e-05 0.216039ZM15.8561 6.51604C15.8561 5.83204 15.9821 5.10604 16.2341 4.33804C16.4981 3.57004 16.9061 2.86804 17.4581 2.23204C18.0101 1.58404 18.7121 1.05004 19.5641 0.630039C20.4161 0.21004 21.4361 3.98159e-05 22.6241 3.98159e-05C23.8241 3.98159e-05 24.8621 0.21604 25.7381 0.648039C26.6261 1.06804 27.3581 1.60204 27.9341 2.25004C28.5101 2.89804 28.9361 3.60604 29.2121 4.37404C29.4881 5.13004 29.6261 5.84404 29.6261 6.51604C29.6261 6.96004 29.5601 7.42804 29.4281 7.92004C29.3081 8.41204 29.1221 8.90404 28.8701 9.39604C28.6301 9.87604 28.3181 10.338 27.9341 10.782C27.5501 11.214 27.0941 11.598 26.5661 11.934C26.0501 12.27 25.4621 12.54 24.8021 12.744C24.1541 12.936 23.4281 13.032 22.6241 13.032C21.4361 13.032 20.4161 12.822 19.5641 12.402C18.7121 11.97 18.0101 11.43 17.4581 10.782C16.9061 10.134 16.4981 9.43204 16.2341 8.67604C15.9821 7.90804 15.8561 7.18804 15.8561 6.51604ZM17.6201 6.51604C17.6201 7.35604 17.7461 8.13004 17.9981 8.83804C18.2621 9.53404 18.6161 10.134 19.0601 10.638C19.5161 11.142 20.0501 11.538 20.6621 11.826C21.2741 12.102 21.9401 12.24 22.6601 12.24C23.3681 12.24 24.0341 12.102 24.6581 11.826C25.2941 11.538 25.8461 11.142 26.3141 10.638C26.7941 10.134 27.1721 9.53404 27.4481 8.83804C27.7241 8.13004 27.8621 7.35604 27.8621 6.51604C27.8621 5.67604 27.7241 4.90804 27.4481 4.21204C27.1721 3.50404 26.7941 2.89804 26.3141 2.39404C25.8461 1.89004 25.2941 1.50004 24.6581 1.22404C24.0341 0.936039 23.3681 0.792039 22.6601 0.792039C21.9401 0.792039 21.2741 0.936039 20.6621 1.22404C20.0501 1.50004 19.5161 1.89004 19.0601 2.39404C18.6161 2.89804 18.2621 3.50404 17.9981 4.21204C17.7461 4.90804 17.6201 5.67604 17.6201 6.51604ZM35.9703 0.216039H37.6083V8.44204C37.6083 8.68204 37.6143 8.92204 37.6263 9.16204C37.6383 9.40204 37.6803 9.64204 37.7523 9.88204C37.8243 10.11 37.9323 10.344 38.0763 10.584C38.2203 10.824 38.4303 11.064 38.7063 11.304C39.0543 11.616 39.4203 11.85 39.8043 12.006C40.2003 12.162 40.6503 12.24 41.1543 12.24C41.7423 12.24 42.3063 12.156 42.8463 11.988C43.3863 11.82 43.8723 11.502 44.3043 11.034C44.5443 10.77 44.7243 10.506 44.8443 10.242C44.9763 9.97804 45.0723 9.71404 45.1323 9.45004C45.1923 9.17404 45.2283 8.90404 45.2403 8.64004C45.2523 8.36404 45.2583 8.09404 45.2583 7.83004V0.216039H46.0503V8.42404C46.0503 9.06004 45.9483 9.66004 45.7443 10.224C45.5403 10.776 45.2343 11.262 44.8263 11.682C44.4303 12.102 43.9323 12.432 43.3323 12.672C42.7443 12.912 42.0663 13.032 41.2983 13.032C40.0743 13.032 39.1083 12.864 38.4003 12.528C37.6923 12.18 37.1583 11.754 36.7983 11.25C36.4383 10.734 36.2103 10.182 36.1143 9.59404C36.0183 8.99404 35.9703 8.44804 35.9703 7.95604V0.216039ZM65.1623 0.216039L70.9403 11.034H71.0123L76.8443 0.216039H78.0863V12.816H76.4483V2.61004H76.3763L70.6883 13.032H70.3643L64.8023 2.53804H64.7303V12.816H63.9383V0.216039H65.1623ZM93.4149 9.10804H87.2049L85.6209 12.816H84.7929L90.1209 0.216039H91.0209L96.8889 12.816H95.1429L93.4149 9.10804ZM93.0369 8.29804L90.2109 2.23204H90.1389L87.5469 8.29804H93.0369ZM100.359 0.216039H102.213L105.885 6.85804H105.957L109.809 0.216039H110.781L106.353 7.88404V12.816H104.715V8.04604L100.359 0.216039ZM134.77 9.10804H128.56L126.976 12.816H126.148L131.476 0.216039H132.376L138.244 12.816H136.498L134.77 9.10804ZM134.392 8.29804L131.566 2.23204H131.494L128.902 8.29804H134.392ZM144.952 12.816V0.216039H146.59V11.826H153.088V12.816H144.952ZM158.286 9.63004H159.51C159.522 9.83404 159.57 10.086 159.654 10.386C159.738 10.674 159.9 10.956 160.14 11.232C160.38 11.508 160.728 11.748 161.184 11.952C161.64 12.144 162.246 12.24 163.002 12.24C163.95 12.24 164.706 12.06 165.27 11.7C165.846 11.34 166.134 10.77 166.134 9.99004C166.134 9.36604 165.954 8.86804 165.594 8.49604C165.234 8.12404 164.778 7.81204 164.226 7.56004C163.686 7.29604 163.098 7.06204 162.462 6.85804C161.826 6.65404 161.232 6.40804 160.68 6.12004C160.14 5.83204 159.69 5.47204 159.33 5.04004C158.97 4.60804 158.79 4.03804 158.79 3.33004C158.79 2.79004 158.898 2.31004 159.114 1.89004C159.342 1.47004 159.642 1.12204 160.014 0.84604C160.398 0.57004 160.836 0.360039 161.328 0.216039C161.832 0.0720396 162.36 3.98159e-05 162.912 3.98159e-05C163.44 3.98159e-05 163.944 0.0660397 164.424 0.198039C164.916 0.318039 165.354 0.504039 165.738 0.75604C166.122 0.99604 166.44 1.29604 166.692 1.65604C166.944 2.00404 167.106 2.40004 167.178 2.84404H165.954C165.858 2.13604 165.534 1.62004 164.982 1.29604C164.442 0.960039 163.782 0.792039 163.002 0.792039C162.534 0.792039 162.12 0.852039 161.76 0.972039C161.4 1.08004 161.094 1.23004 160.842 1.42204C160.602 1.60204 160.416 1.81804 160.284 2.07004C160.164 2.32204 160.104 2.59204 160.104 2.88004C160.104 3.39604 160.29 3.81004 160.662 4.12204C161.034 4.43404 161.496 4.71004 162.048 4.95004C162.612 5.19004 163.218 5.41804 163.866 5.63404C164.526 5.85004 165.132 6.12004 165.684 6.44404C166.248 6.75604 166.716 7.15204 167.088 7.63204C167.46 8.10004 167.646 8.70604 167.646 9.45004C167.646 9.99004 167.538 10.482 167.322 10.926C167.106 11.37 166.8 11.748 166.404 12.06C166.008 12.372 165.528 12.612 164.964 12.78C164.412 12.948 163.788 13.032 163.092 13.032C162.408 13.032 161.778 12.954 161.202 12.798C160.626 12.63 160.122 12.402 159.69 12.114C159.27 11.814 158.934 11.454 158.682 11.034C158.442 10.614 158.31 10.146 158.286 9.63004ZM173.77 6.51604C173.77 5.83204 173.896 5.10604 174.148 4.33804C174.412 3.57004 174.82 2.86804 175.372 2.23204C175.924 1.58404 176.626 1.05004 177.478 0.630039C178.33 0.21004 179.35 3.98159e-05 180.538 3.98159e-05C181.738 3.98159e-05 182.776 0.21604 183.652 0.648039C184.54 1.06804 185.272 1.60204 185.848 2.25004C186.424 2.89804 186.85 3.60604 187.126 4.37404C187.402 5.13004 187.54 5.84404 187.54 6.51604C187.54 6.96004 187.474 7.42804 187.342 7.92004C187.222 8.41204 187.036 8.90404 186.784 9.39604C186.544 9.87604 186.232 10.338 185.848 10.782C185.464 11.214 185.008 11.598 184.48 11.934C183.964 12.27 183.376 12.54 182.716 12.744C182.068 12.936 181.342 13.032 180.538 13.032C179.35 13.032 178.33 12.822 177.478 12.402C176.626 11.97 175.924 11.43 175.372 10.782C174.82 10.134 174.412 9.43204 174.148 8.67604C173.896 7.90804 173.77 7.18804 173.77 6.51604ZM175.534 6.51604C175.534 7.35604 175.66 8.13004 175.912 8.83804C176.176 9.53404 176.53 10.134 176.974 10.638C177.43 11.142 177.964 11.538 178.576 11.826C179.188 12.102 179.854 12.24 180.574 12.24C181.282 12.24 181.948 12.102 182.572 11.826C183.208 11.538 183.76 11.142 184.228 10.638C184.708 10.134 185.086 9.53404 185.362 8.83804C185.638 8.13004 185.776 7.35604 185.776 6.51604C185.776 5.67604 185.638 4.90804 185.362 4.21204C185.086 3.50404 184.708 2.89804 184.228 2.39404C183.76 1.89004 183.208 1.50004 182.572 1.22404C181.948 0.936039 181.282 0.792039 180.574 0.792039C179.854 0.792039 179.188 0.936039 178.576 1.22404C177.964 1.50004 177.43 1.89004 176.974 2.39404C176.53 2.89804 176.176 3.50404 175.912 4.21204C175.66 4.90804 175.534 5.67604 175.534 6.51604ZM204.897 12.816V0.216039H206.535V11.826H213.033V12.816H204.897ZM220.445 0.216039H222.083V12.816H220.445V0.216039ZM231.126 12.816V0.216039H232.764V7.30804L239.514 0.216039H240.414L235.842 5.09404L241.458 12.816H239.586L234.798 6.21004L232.764 8.38804V12.816H231.126ZM248.151 0.216039H256.287V1.20604H249.789V5.72404H255.369V6.55204H249.789V11.826H256.287V12.816H248.151V0.216039Z" fill="#FCFCFC"/>
</svg>
